<svg preserveAspectRatio="none" overflow="visible" style="display: block;" width="1735" height="287" viewBox="0 0 1735 287" fill="none" xmlns="http://www.w3.org/2000/svg">
<path id="Vector" d="M1697.24 55.3743V55.3259C1697.24 55.3259 1697.24 55.3259 1697.27 55.3259C1697.27 55.3259 1697.24 55.3259 1697.21 55.3501M1690.25 61.3024C1690.25 61.3024 1690.35 61.2541 1690.44 61.2299C1690.44 61.2299 1690.31 61.3024 1690.25 61.3266M1688.04 51.9625C1688.04 51.9625 1688.26 51.9142 1688.35 51.8658C1688.35 51.89 1688.35 51.9141 1688.38 51.9383C1688.92 51.7931 1688.19 52.1561 1688.01 51.9383M1677.7 37.4687C1677.7 37.4687 1677.7 37.3962 1677.7 37.372C1677.79 37.4204 1677.85 37.4687 1677.95 37.5413C1677.85 37.5413 1677.79 37.5172 1677.66 37.493M1677.73 38.0252C1677.73 38.0252 1677.73 38.0252 1677.73 38.001C1677.73 38.001 1677.76 38.001 1677.79 38.0252H1677.73ZM1673.24 105.606C1671.37 105.752 1670.49 105.8 1669.63 105.8C1670.52 105.8 1671.59 105.727 1673.24 105.631M1609.29 116.277C1609.29 116.277 1609.32 116.253 1609.35 116.229C1609.35 116.229 1609.35 116.253 1609.35 116.277H1609.26H1609.29ZM1637.75 187.319C1637.75 187.319 1637.66 187.319 1637.63 187.319H1637.5C1637.5 187.319 1637.5 187.27 1637.5 187.246C1637.56 187.246 1637.66 187.294 1637.72 187.319M1516.72 205.587C1516.82 205.418 1516.82 205.224 1516.72 205.055C1516.53 204.571 1514.26 204.426 1515.55 203.821C1516.44 203.385 1517.96 203.651 1517.99 204.619C1517.99 205.055 1518.18 205.442 1518.56 205.805C1517.99 205.66 1517.39 205.611 1516.76 205.611M1516.72 211.564C1517.01 211.66 1517.29 211.685 1517.58 211.685C1517.29 211.83 1517.01 211.878 1516.72 211.564ZM1510.72 226.106C1510.72 226.106 1510.91 226.106 1511 226.106C1511.13 226.13 1511.25 226.178 1511.41 226.203C1511.19 226.203 1510.97 226.154 1510.75 226.13M1477.45 202.441C1479.91 201.909 1482.41 202.054 1484.91 202.441C1482.41 202.514 1479.91 202.417 1477.45 202.441ZM1434.78 201.643C1433.55 201.74 1432.35 201.304 1431.05 201.498C1431.02 201.498 1430.99 201.498 1430.96 201.498C1430.96 201.401 1430.96 201.328 1430.89 201.232C1432.06 200.941 1433.27 200.893 1434.56 201.111C1434.85 201.256 1434.91 201.401 1434.82 201.619M1434.82 197.796C1435.23 197.941 1435.73 198.038 1436.17 198.013C1436.05 198.328 1435.99 198.643 1436.14 198.933C1433.39 198.376 1430.36 198.473 1427.38 198.231C1429.88 197.409 1432.16 196.852 1434.85 197.796M1422.23 203.071C1421.53 203.192 1420.96 203.409 1420.46 203.651C1420.33 203.579 1420.14 203.53 1419.82 203.506C1420.9 202.587 1422.26 202.03 1424.16 202.006C1423.21 202.199 1422.32 202.417 1422.2 203.046M1418.21 272.781C1417.86 273.047 1417.64 273.701 1417.42 273.531C1416.6 272.95 1415.52 272.636 1414.35 272.442C1415.4 272.539 1416.47 272.539 1417.61 272.467C1417.99 272.467 1419.13 272.128 1418.21 272.781ZM1412.33 204.667C1411.63 204.74 1410.91 204.837 1410.18 204.934C1408.5 205.176 1406.7 204.861 1405.02 204.619C1402.15 204.353 1399.33 204.377 1396.77 205.248C1396.58 205.321 1396.39 205.393 1396.23 205.49C1394.11 204.668 1391.65 205.079 1389.31 205.103C1384.97 205.127 1380.86 206.289 1376.47 205.853C1376.21 205.95 1375.96 206.023 1375.74 206.095C1374.92 205.95 1374.13 205.805 1373.3 205.684C1371.56 206.071 1369.83 204.764 1368.05 205.272C1367.64 205.224 1367.2 205.224 1366.79 205.248C1366.19 205.345 1365.52 205.442 1365.27 205.708C1363.75 204.28 1361.07 204.571 1358.66 204.571C1356.1 204.571 1353.51 204.813 1351.48 203.555C1352.94 202.441 1354.3 201.328 1356.04 200.361C1356.39 200.869 1356.64 201.377 1357.71 201.619C1357.9 201.619 1358.12 201.57 1358.31 201.522C1358.06 201.691 1357.84 201.885 1357.81 202.151C1357.65 202.998 1359.04 203.506 1360.31 203.409C1366.76 202.901 1373.11 204.547 1379.57 203.651C1382.29 203.675 1384.97 203.579 1388.01 203.022C1392.37 203.191 1396.26 202.296 1400.25 201.982C1400.82 202.151 1401.39 202.296 1401.96 202.441C1404.46 202.756 1406.95 203.264 1409.58 202.901C1412.52 202.49 1414.86 203.071 1416.98 204.087C1415.43 204.256 1413.91 204.474 1412.39 204.692M1410.27 271.813H1410.75C1411.1 271.91 1411.44 272.007 1411.82 272.079C1411.29 272.007 1410.78 271.934 1410.27 271.813ZM1374.66 209.459C1374.66 209.459 1374.66 209.41 1374.7 209.41C1374.7 209.41 1374.73 209.459 1374.76 209.459H1374.66ZM703.233 279.193C703.233 279.193 703.233 279.193 703.264 279.193C703.264 279.193 703.233 279.193 703.201 279.217M695.358 280.355C695.358 280.355 695.358 280.306 695.295 280.282C695.358 280.282 695.422 280.282 695.485 280.282C695.453 280.306 695.39 280.33 695.327 280.355M679.767 285.412C679.767 285.412 679.83 285.363 679.894 285.339C679.894 285.363 679.894 285.387 679.894 285.412C679.862 285.412 679.799 285.412 679.767 285.412ZM646.434 283.379C646.213 283.234 646.055 283.113 645.865 282.992C646.086 282.992 646.339 282.992 646.561 282.992C646.498 283.113 646.434 283.234 646.403 283.355M486.506 202.611C486.506 202.611 486.317 202.538 486.222 202.514C486.222 202.514 486.253 202.514 486.285 202.49C486.38 202.417 486.506 202.32 486.601 202.248C486.664 202.345 486.728 202.441 486.791 202.538C486.665 202.538 486.507 202.538 486.38 202.514C486.38 202.538 486.443 202.562 486.475 202.611M308.489 283.96C308.489 283.96 308.552 283.936 308.584 283.936C308.552 283.936 308.521 283.936 308.489 283.96ZM305.548 272.83C305.548 272.83 305.453 272.781 305.421 272.757C305.421 272.757 305.453 272.757 305.485 272.757C305.485 272.757 305.485 272.781 305.516 272.805M285.371 276.338C285.371 276.193 285.308 276.023 285.181 275.83C285.371 275.951 285.466 276.12 285.371 276.314M184.835 283.089C184.044 283.089 183.191 283.089 182.273 282.968C183.222 283.065 184.108 283.089 184.993 283.065C184.962 283.065 184.898 283.065 184.867 283.065M108.492 272.757C108.492 272.757 108.429 272.757 108.397 272.757C108.492 272.708 108.587 272.66 108.682 272.612C108.84 272.612 109.03 272.66 109.188 272.684C108.967 272.709 108.745 272.733 108.492 272.781M59.9478 279.193C60.0427 279.193 60.106 279.145 60.2009 279.145C60.106 279.145 60.0427 279.193 59.9478 279.217M44.8943 125.883C44.8943 125.883 44.8943 125.883 44.9259 125.883C44.9259 125.883 44.926 125.883 44.9576 125.907C44.9576 125.907 44.9259 125.907 44.8943 125.907M47.2661 175.099C47.2661 175.099 47.2661 175.099 47.2661 175.075C46.9815 174.76 47.9303 175.075 47.2661 175.099ZM51.6304 144.878C51.6304 144.878 51.6304 144.878 51.5988 144.878C51.5988 144.878 51.5987 144.878 51.5671 144.878C51.5671 144.878 51.5673 144.878 51.5356 144.853C51.5673 144.853 51.6304 144.853 51.6621 144.902M54.5399 145.724C54.5399 145.724 54.7614 145.749 54.8562 145.773C54.7297 145.773 54.6349 145.749 54.5084 145.724C54.5084 145.724 54.5082 145.724 54.5399 145.724ZM59.853 152.911C59.853 152.911 59.7897 152.959 59.7264 152.983C59.6948 152.983 59.6316 152.959 59.6 152.935C59.6949 152.935 59.7582 152.935 59.853 152.935M54.5715 150.225C54.5715 150.225 54.6032 150.225 54.6348 150.225C54.6348 150.225 54.6031 150.225 54.5715 150.225ZM83.129 95.7343C83.129 95.7343 83.1291 95.7343 83.1607 95.7343ZM83.1607 95.7343C83.1607 95.7343 83.1605 95.7343 83.1922 95.7585C83.1922 95.7585 83.1607 95.7585 83.129 95.7343M86.9872 93.6775C86.9872 93.6775 86.9872 93.6775 87.0188 93.6775ZM90.0549 186.157C90.0549 186.157 90.0864 186.157 90.118 186.157C90.118 186.157 90.1181 186.181 90.1497 186.181H90.0549M95.526 94.7906C95.526 94.7906 95.4312 94.7421 95.3679 94.7421C95.4312 94.597 95.526 94.6938 95.526 94.7906ZM119.403 108.389C119.403 108.389 119.624 108.341 119.719 108.316C119.751 108.316 119.782 108.365 119.814 108.389H119.371H119.403ZM155.202 89.2979C155.202 89.2979 154.949 89.3705 154.791 89.4189C154.032 89.4673 153.495 89.3705 153.02 89.177C153.748 89.2011 154.475 89.2495 155.202 89.2737M165.923 90.0722C165.797 90.2174 165.67 90.3869 165.607 90.6046C164.627 90.7256 163.678 90.8465 162.698 90.9675C162.255 90.4835 161.812 90.0481 161.274 89.6851C162.824 89.8061 164.374 89.927 165.923 90.0722ZM187.618 9.47321C187.618 9.47321 187.65 9.47321 187.681 9.47321C187.681 9.47321 187.65 9.47321 187.618 9.47321ZM195.398 84.6038C195.398 84.6038 195.303 84.6763 195.271 84.7247C195.24 84.6763 195.177 84.6521 195.145 84.6038C195.24 84.6038 195.335 84.6038 195.398 84.6038ZM198.434 4.14992C198.434 4.14992 198.687 4.2226 198.782 4.2468C198.592 4.34359 198.181 4.19831 198.434 4.14992ZM213.456 84.1924C213.456 84.1924 213.393 84.3618 213.329 84.4344H213.171C213.234 84.3376 213.329 84.265 213.456 84.1924ZM249.382 2.04482C249.382 2.04482 249.382 2.04482 249.319 2.04482ZM265.827 84.4103C266.111 84.5797 266.428 84.7248 266.712 84.8458C266.523 84.87 266.333 84.9184 266.206 84.991C266.017 84.8942 265.827 84.7732 265.542 84.6764C265.479 84.6764 265.669 84.2167 265.827 84.4103ZM293.594 12.1348H293.657C293.657 12.1348 293.657 12.1348 293.625 12.1348M296.219 11.3606C296.092 11.2396 295.934 11.1186 295.807 11.0461C296.092 11.0461 296.187 11.1912 296.219 11.3606ZM314.213 87.6041C314.213 87.6041 314.371 87.6041 314.435 87.6283C314.435 87.6767 314.498 87.7009 314.529 87.7493C314.403 87.7009 314.308 87.6767 314.182 87.6283M315.352 5.91638C315.352 5.91638 315.288 5.91625 315.257 5.94045C315.257 5.89206 315.225 5.8196 315.162 5.7712C315.225 5.8196 315.288 5.86798 315.352 5.91638ZM317.471 89.9028C317.471 89.9028 317.597 89.9028 317.66 89.9028C317.534 89.9996 317.376 90.0964 317.249 90.2174C317.344 90.0964 317.407 89.9996 317.502 89.9028M348.179 11.9413C348.179 11.9413 348.368 12.038 348.432 12.1348H348.052C348.052 12.1348 348.147 12.0139 348.179 11.9413ZM367.565 14.9659C368.419 15.1595 369.272 15.3288 370.158 15.5224C369.241 16.0063 368.102 15.7643 367.122 15.6675C367.248 15.4256 367.407 15.1837 367.565 14.9659ZM383.662 93.3629C383.662 93.3629 383.757 93.3872 383.82 93.4114C383.82 93.4114 383.757 93.4114 383.725 93.4114C383.725 93.4114 383.757 93.4356 383.788 93.4598C383.725 93.4598 383.693 93.4356 383.63 93.4114C383.662 93.4114 383.693 93.4114 383.725 93.4114C383.725 93.4114 383.693 93.3871 383.662 93.3629ZM386.666 11.651C386.666 11.651 386.634 11.6751 386.603 11.6993C386.603 11.6751 386.571 11.6509 386.54 11.6267C386.571 11.6267 386.635 11.6268 386.666 11.651ZM391.536 6.47285C391.536 6.47285 391.758 6.4971 391.884 6.52129C391.695 6.61808 391.505 6.73897 391.378 6.88415C391.125 6.76317 390.904 6.66639 390.651 6.5938C390.936 6.54541 391.252 6.52124 391.536 6.47285ZM400.36 11.5783C400.36 11.5783 400.423 11.5783 400.455 11.5541C400.455 11.5541 400.455 11.5541 400.455 11.5783H400.328H400.36ZM403.364 10.5621C403.396 10.5621 403.459 10.5863 403.491 10.6105C403.427 10.6105 403.364 10.5863 403.301 10.5621C403.301 10.5621 403.269 10.5621 403.238 10.5621C403.238 10.5621 403.301 10.5621 403.333 10.5621M463.167 10.0056C463.167 10.0056 463.167 9.95715 463.167 9.93295C463.167 9.93295 463.231 9.98142 463.262 10.0056H463.167ZM501.37 12.0865C501.37 12.0865 501.37 12.1348 501.37 12.159C501.37 12.159 501.37 12.159 501.402 12.159C501.402 12.159 501.149 12.0865 501.022 12.0623C501.149 12.0623 501.275 12.0623 501.433 12.0623M503.363 17.4339C503.552 17.4339 503.742 17.4339 503.9 17.4339C503.9 17.579 503.774 17.7001 503.616 17.7726C503.552 17.6759 503.489 17.579 503.363 17.4339ZM515.159 11.1186H515.222ZM534.735 6.83586C534.735 6.83586 534.735 6.8842 534.735 6.93259C534.735 6.93259 534.671 6.93259 534.64 6.93259L534.735 6.85993M539.32 95.7343C539.257 95.7585 539.225 95.7826 539.194 95.8068C538.972 95.71 538.846 95.6133 538.783 95.5407C539.004 95.5649 539.194 95.6133 539.352 95.7101M552.413 9.90873C552.413 9.90873 552.413 9.93298 552.413 9.95717C552.382 9.95717 552.35 9.95717 552.318 9.95717C552.318 9.95717 552.382 9.93293 552.413 9.90873ZM553.33 13.7318C553.33 13.7318 553.33 13.7318 553.362 13.7318C553.267 13.8286 553.172 13.9254 553.014 13.9738C553.109 13.877 553.204 13.8044 553.299 13.7318M585.714 9.4007C585.714 9.4007 585.746 9.44901 585.778 9.47321C585.493 9.42482 585.208 9.37643 584.955 9.32804C585.208 9.32804 585.461 9.3765 585.714 9.4007ZM634.417 16.1757C634.417 16.1757 634.606 16.2725 634.67 16.3209C634.67 16.3209 634.701 16.345 634.733 16.3692H634.701V16.3209H634.417C634.417 16.3209 634.417 16.2241 634.417 16.1757ZM635.018 14.8449C635.018 14.8449 634.923 14.8449 634.859 14.8207C634.733 14.6513 634.923 14.748 635.018 14.869M641.09 16.9016C641.09 16.9016 641.027 17.0226 640.963 17.071C640.837 17.0226 640.679 16.95 640.552 16.9016H641.058M641.501 16.3209C641.501 16.3209 641.532 16.3209 641.564 16.3451H641.501C641.501 16.3451 641.501 16.3451 641.501 16.3209ZM649.565 8.02147L649.312 7.85208C649.312 7.85208 649.502 7.94888 649.597 8.02147M680.747 11.0703H680.811C680.811 11.0703 680.779 11.0703 680.747 11.0703ZM684.353 18.1114C684.353 18.1114 684.384 18.2324 684.384 18.2808C684.226 18.2082 684.036 18.1598 683.878 18.0872C684.036 18.0872 684.195 18.0872 684.353 18.0872M691.5 15.3288C691.5 15.3288 691.5 15.353 691.5 15.3772C691.5 15.3772 691.5 15.353 691.5 15.3288C691.5 15.3288 691.532 15.3288 691.563 15.3288ZM737.609 12.1348C737.609 12.1348 737.609 12.2075 737.609 12.2559C737.609 12.2559 737.546 12.2559 737.514 12.2317L737.609 12.1348ZM739.602 14.24H739.728C739.728 14.24 739.728 14.3368 739.728 14.361C739.697 14.3126 739.633 14.2884 739.602 14.24ZM745.61 20.5795C745.61 20.5795 745.61 20.5794 745.61 20.6036C745.61 20.6036 745.547 20.6037 745.516 20.5795H745.61ZM826.57 21.4748C826.57 21.4748 826.792 21.5474 826.855 21.5958C826.76 21.5958 826.666 21.5958 826.539 21.5958C826.539 21.5474 826.539 21.5232 826.539 21.4748M852.313 21.5473H852.25C852.25 21.5473 852.25 21.5473 852.282 21.5473M906.171 20.0956C906.171 20.0956 906.108 20.144 906.076 20.144V20.0956C906.108 20.0956 906.139 20.0956 906.171 20.0956ZM1033.65 22.7089V22.7571H1033.78C1033.78 22.7571 1033.75 22.7572 1033.71 22.7814C1033.71 22.7814 1033.65 22.7813 1033.62 22.7571C1033.62 22.7571 1033.56 22.7571 1033.52 22.7329C1033.56 22.7329 1033.59 22.7329 1033.62 22.7329M1034.7 17.9178L1034.47 18.0388C1034.57 17.9904 1034.63 17.9662 1034.73 17.9178M1114.42 25.4189C1114.42 25.4189 1114.58 25.5156 1114.61 25.564C1114.42 25.5398 1114.23 25.5155 1114.07 25.4672C1114.2 25.4672 1114.3 25.4188 1114.42 25.3946M1145.03 17.1677C1141.52 17.5307 1137.98 17.7243 1134.41 17.7001C1137.95 17.4582 1141.52 17.2645 1145.03 17.1677ZM1176.72 16.95L1167.2 16.8774C1170.37 16.829 1173.53 16.8291 1176.72 16.95ZM1218.94 17.9905C1218.94 17.9905 1218.94 17.9905 1218.94 18.0147C1218.94 18.0147 1218.94 18.0147 1218.91 17.9905C1218.91 17.9905 1218.94 17.9905 1218.97 17.9905M1235.39 17.8936C1235.39 17.8936 1235.55 17.8936 1235.61 17.942C1235.51 17.942 1235.45 17.942 1235.36 17.942C1235.36 17.942 1235.36 17.9178 1235.36 17.8936M1241.21 23.6041C1241.21 23.6041 1241.24 23.6041 1241.27 23.6041C1241.24 23.6041 1241.18 23.604 1241.14 23.6282C1241.14 23.6282 1241.21 23.6283 1241.21 23.6041ZM1324.7 22.0797C1324.7 22.0797 1324.76 22.0796 1324.79 22.128C1324.76 22.128 1324.7 22.128 1324.66 22.128C1324.66 22.128 1324.7 22.0797 1324.73 22.0797M1372.2 14.24C1372.2 14.24 1372.17 14.4093 1372.17 14.4577C1372.04 14.3851 1371.91 14.3126 1371.82 14.2158C1371.94 14.2158 1372.07 14.2158 1372.23 14.2158M1452.3 28.4192C1452.3 28.4192 1452.3 28.4192 1452.27 28.4192ZM1464.89 29.4839C1464.89 29.4839 1464.95 29.508 1464.99 29.5322C1464.92 29.5322 1464.89 29.5322 1464.83 29.5322C1464.83 29.5322 1464.86 29.4839 1464.89 29.4597M1467.07 28.9757C1467.07 28.9757 1467.07 29.0242 1467.1 29.0484C1467.07 29.0484 1467.01 29.0484 1466.98 29.0484C1466.98 29.0242 1467.04 28.9999 1467.07 28.9757ZM1483.96 29.0241C1483.96 29.0241 1483.87 29.1209 1483.8 29.1693C1483.74 29.1209 1483.64 29.0968 1483.58 29.0484C1483.68 29.0484 1483.83 29.0483 1483.96 29.0241ZM1504.2 28.4917C1504.2 28.4917 1504.2 28.4917 1504.23 28.4917ZM1504.2 24.2331C1504.2 24.2331 1504.33 24.1122 1504.36 24.0396C1504.36 24.088 1504.36 24.1847 1504.33 24.2573C1504.3 24.2573 1504.23 24.2573 1504.2 24.2573V24.2331ZM1506.1 26.9433H1506.03C1506.03 26.9433 1506.07 26.9433 1506.1 26.9433ZM1521.72 28.395C1521.72 28.395 1521.82 28.4433 1521.85 28.4675C1521.75 28.4675 1521.69 28.4675 1521.59 28.4675C1521.63 28.4675 1521.66 28.4192 1521.69 28.395M1550.25 14.7723C1550.06 14.7965 1549.87 14.8206 1549.68 14.869C1549.61 14.8448 1549.52 14.7965 1549.46 14.7723H1550.25ZM1564 29.5081C1564 29.5081 1563.81 29.5081 1563.72 29.5081C1563.72 29.4597 1563.69 29.4113 1563.66 29.3629C1563.78 29.4113 1563.88 29.4597 1564 29.4839M1567.23 29.5564C1567.23 29.5564 1567.2 29.629 1567.17 29.6773C1567.07 29.6531 1566.98 29.629 1566.88 29.5806C1566.98 29.5806 1567.1 29.5806 1567.23 29.5806M1601.7 185.02C1602.17 185.02 1602.65 185.02 1603.03 185.141C1602.59 185.092 1602.14 185.044 1601.7 185.02ZM1362.11 201.159C1361.63 201.135 1361.16 201.111 1360.69 201.062C1360.4 201.038 1360.15 201.062 1359.9 201.062C1360.65 200.893 1361.41 200.82 1362.14 201.183M332.334 180.834C332.334 180.834 332.05 180.834 331.923 180.834C331.923 180.64 331.828 180.519 331.733 180.423C332.081 180.471 332.366 180.592 332.587 180.834C332.524 180.834 332.429 180.834 332.366 180.834M178.953 107.857C178.953 107.857 178.953 107.857 178.953 107.833C179.079 107.833 179.238 107.833 179.364 107.857H178.921M191.476 111.994C191.192 111.994 190.939 112.067 190.749 112.164C190.654 111.97 190.97 111.825 191.255 111.68C191.318 111.801 191.381 111.898 191.508 111.994M193.121 108.389C193.121 108.389 193.121 108.389 193.152 108.389C193.152 108.389 193.121 108.389 193.089 108.389C193.216 108.389 193.342 108.389 193.5 108.389C193.469 108.413 193.406 108.462 193.374 108.51C193.311 108.486 193.216 108.438 193.152 108.413H193.089L193.121 108.389ZM195.999 106.236C195.999 106.236 195.872 106.236 195.809 106.236C195.809 106.211 195.809 106.187 195.809 106.163C195.872 106.163 195.936 106.211 195.999 106.211M212.981 97.4522C212.981 97.4522 212.855 97.4281 212.792 97.4039C212.855 97.4039 212.918 97.4039 212.981 97.4039C212.981 97.4281 212.981 97.4522 212.981 97.4764M247.168 115.842H247.105C247.105 115.842 247.2 115.769 247.263 115.769C247.263 115.817 247.231 115.866 247.2 115.89C247.2 115.89 247.168 115.866 247.136 115.842C246.82 115.842 246.536 115.866 246.219 115.89C246.378 115.817 246.536 115.745 246.725 115.648C246.852 115.696 246.978 115.745 247.073 115.793C247.073 115.793 247.073 115.793 247.105 115.817C247.105 115.817 247.105 115.817 247.136 115.817M249.192 111.68C249.192 111.68 249.192 111.68 249.161 111.68C249.161 111.68 249.161 111.704 249.161 111.728M288.249 104.76C288.249 104.76 288.249 104.76 288.281 104.76C288.281 104.76 288.312 104.76 288.344 104.76H288.281C288.281 104.76 288.376 104.76 288.439 104.76C288.407 104.784 288.344 104.832 288.281 104.856C288.281 104.856 288.281 104.808 288.281 104.784C288.281 104.784 288.249 104.784 288.217 104.784M298.369 179.89C298.337 179.89 298.274 179.89 298.242 179.89H298.401H298.369ZM299.223 178.245C299.223 178.245 299.223 178.245 299.223 178.269C299.223 178.269 299.191 178.269 299.16 178.269C299.16 178.269 299.223 178.269 299.254 178.269M311.557 180.205C311.557 180.205 311.272 180.302 311.146 180.374C311.082 180.326 310.987 180.277 310.924 180.205H311.557ZM314.814 106.84C314.814 106.84 314.877 106.84 314.909 106.84C314.909 106.84 314.877 106.865 314.846 106.889H314.814M314.814 106.865C314.814 106.865 314.846 106.865 314.877 106.865C314.877 106.865 314.846 106.889 314.814 106.913C314.814 106.913 314.814 106.889 314.814 106.865ZM318.704 120.85C318.071 120.85 317.439 120.85 316.901 121.068C316.743 121.116 316.269 120.778 317.344 120.778C317.692 120.729 318.198 120.802 318.704 120.874M320.886 120.536C320.633 120.657 320.38 120.729 320.095 120.754C320.254 120.705 320.412 120.608 320.538 120.463C320.633 120.463 320.76 120.487 320.886 120.512V120.536ZM329.962 179.987C331.038 180.108 332.113 180.229 333.188 180.326H331.544C331.291 180.253 330.911 180.205 330.247 180.132C330.026 180.132 329.931 180.156 329.962 180.277C329.962 180.277 329.962 180.301 329.962 180.326H329.804C329.804 180.326 329.583 179.987 329.962 179.987ZM331.702 118.963H331.733ZM321.202 118.044C321.202 118.044 321.076 118.044 320.981 118.068C321.139 116.398 322.973 115.067 324.302 113.64C324.302 113.64 324.301 113.64 324.333 113.64C327.622 114.511 329.52 116.447 332.872 117.269C332.303 117.56 331.733 117.874 331.354 118.261C328.002 117.826 324.523 118.503 321.171 118.019M333.694 130.602C333.947 130.747 334.105 130.868 334.169 130.965C334.011 130.868 333.789 130.771 333.473 130.674C333.536 130.65 333.599 130.626 333.663 130.626M346.281 131.061C346.281 131.061 346.154 131.061 346.091 131.061C345.807 130.94 345.648 130.844 345.522 130.771C345.775 130.868 346.06 130.965 346.281 131.061ZM346.281 121.601C346.281 121.601 346.281 121.576 346.313 121.552C346.313 121.552 346.376 121.576 346.408 121.601H346.471C346.471 121.601 346.439 121.6 346.408 121.625C346.408 121.625 346.408 121.6 346.408 121.576C346.408 121.576 346.313 121.576 346.281 121.576M349.254 112.067C349.254 112.067 349.254 112.043 349.254 112.019C349.254 112.019 349.254 112.019 349.285 112.043M372.656 107.276C372.656 107.276 372.53 107.276 372.498 107.276C372.372 107.252 372.245 107.228 372.119 107.179C372.308 107.228 372.498 107.252 372.656 107.276ZM379.551 134.933C379.551 134.933 379.551 134.933 379.519 134.957C379.519 134.957 379.551 134.957 379.582 134.957M383.693 140.159H383.44C383.44 140.159 383.504 140.111 383.567 140.087C383.567 140.087 383.63 140.111 383.662 140.135H383.725L383.693 140.159ZM403.301 138.562C401.878 138.393 400.676 138.466 399.854 138.974C399.537 138.974 399.253 138.998 398.937 139.022C396.691 139.409 394.035 139.506 393.402 141.103C392.738 141.103 392.074 141.103 391.41 141.103C390.271 140.498 388.912 139.966 388.5 139.046C389.228 137.691 391.536 137.982 393.276 137.643C393.561 137.643 393.813 137.643 394.098 137.643C394.604 137.643 395.11 137.643 395.616 137.594C397.229 137.546 398.873 137.401 400.423 137.594C400.581 137.594 400.708 137.643 400.866 137.667C401.751 137.812 402.574 138.078 403.364 138.562M404.534 135.368C404.534 135.368 404.408 135.392 404.313 135.417C404.313 135.392 404.344 135.344 404.376 135.296C404.408 135.32 404.471 135.344 404.503 135.368M405.262 129.101C405.262 129.101 405.23 129.101 405.198 129.077H405.262C405.262 129.077 405.262 129.077 405.262 129.101ZM417.785 111.583C417.785 111.583 417.943 111.511 418.007 111.462C418.038 111.511 418.102 111.535 418.165 111.583C418.038 111.583 417.912 111.583 417.785 111.583ZM416.615 118.721C413.073 119.641 413.105 119.834 416.425 121.117C416.489 121.117 416.552 121.117 416.615 121.117C416.678 121.213 416.71 121.31 416.742 121.431C414.591 121.455 412.535 121.334 410.701 120.633C410.575 120.584 410.448 120.536 410.322 120.487C411.776 118.939 411.081 117.608 408.962 116.447C408.993 116.447 409.057 116.398 409.088 116.374C411.365 115.382 411.018 113.664 412.662 112.503C412.915 112.333 413.136 112.164 413.389 111.994C413.642 111.994 413.927 111.994 414.18 111.994C414.876 112.14 415.698 112.115 416.52 112.019C416.647 112.019 416.773 111.946 416.9 111.922C417.058 111.922 417.216 111.922 417.374 111.922C417.88 111.922 418.354 111.922 418.86 111.946C419.999 112.309 421.485 112.115 422.782 112.212C423.573 112.261 424.427 112.188 425.28 112.188C425.723 112.285 426.039 112.478 426.197 112.841C426.292 113.059 426.229 113.228 426.103 113.325C424.901 113.616 423.478 113.567 422.402 113.93C422.086 114.027 421.865 114.172 421.738 114.342C420.031 113.325 418.196 113.833 417.058 114.632C415.224 115.89 415.066 117.342 416.615 118.721ZM451.592 114.801C451.371 114.801 451.15 114.801 450.897 114.801C448.209 114.971 445.489 115.551 442.832 114.656C442.769 114.656 442.674 114.656 442.611 114.656C442.896 113.495 441.061 113.374 439.512 113.107C438.974 113.011 438.025 113.156 438.025 112.865C438.025 112.623 439.037 112.745 439.575 112.648C444.224 111.922 448.873 111.317 453.743 111.244C453.775 111.293 453.838 111.365 453.869 111.414C455.008 112.865 450.865 113.422 451.624 114.777M474.932 107.857C474.932 107.857 474.868 107.857 474.805 107.881C474.837 107.881 474.869 107.881 474.932 107.857ZM475.153 107.784C475.153 107.784 475.153 107.784 475.153 107.808H475.09C475.122 107.808 475.185 107.76 475.216 107.76M484.767 119.979H484.514C484.514 119.979 484.577 119.834 484.641 119.786C484.704 119.858 484.767 119.931 484.767 119.979ZM497.512 121.697C497.512 121.697 497.512 121.673 497.48 121.649C497.48 121.649 497.48 121.649 497.512 121.649C497.512 121.649 497.512 121.673 497.512 121.697ZM1377.07 195.739C1376.85 195.763 1376.66 195.836 1376.47 195.908C1376.37 195.763 1376.25 195.618 1376.09 195.497C1376.44 195.57 1376.75 195.642 1377.07 195.739ZM1587.47 184.85H1587.69C1587.69 184.85 1587.69 184.875 1587.69 184.899C1587.6 184.899 1587.53 184.875 1587.44 184.85M1141.52 20.1681C1141.52 20.1681 1141.59 20.1681 1141.65 20.1681C1141.65 20.1681 1141.65 20.1923 1141.65 20.2165C1141.62 20.2165 1141.56 20.1923 1141.52 20.1681ZM1034.6 21.5958H1034.63C1034.63 21.5958 1034.63 21.5958 1034.6 21.5958ZM266.08 86.6848C266.08 86.6848 266.08 86.5878 266.08 86.5395C266.143 86.5395 266.175 86.5395 266.206 86.5395C266.143 86.612 266.111 86.6605 266.048 86.7088M142.015 91.5241C142.015 91.5241 141.92 91.4756 141.952 91.4272C141.952 91.4272 142.015 91.4515 142.047 91.4757C142.047 91.4757 142.047 91.4757 142.047 91.5241M142.078 91.5241L142.015 91.4999C142.078 91.4999 142.11 91.4999 142.173 91.5241C142.173 91.5725 142.236 91.6208 142.299 91.6208C142.299 91.6208 142.236 91.6208 142.11 91.5724C142.046 91.5724 142.046 91.5483 142.015 91.5241H142.078ZM1385.64 202.296C1384.53 202.151 1383.49 202.006 1382.44 201.885C1380.23 201.667 1382.67 199.247 1378.97 199.756C1378.97 199.756 1378.9 199.756 1378.87 199.756C1379.47 199.417 1380.01 199.006 1380.23 198.401C1382.57 199.61 1385.57 199.078 1388.33 199.127C1388.58 199.151 1388.8 199.151 1388.99 199.151C1389.18 199.828 1389.88 200.022 1391.46 199.368C1391.87 199.199 1391.55 198.159 1392.75 198.957C1393.61 199.538 1394.84 200.288 1394.18 201.062C1393.67 201.643 1392.28 202.006 1390.79 201.691C1388.77 201.256 1387.12 201.449 1385.61 202.296M1417.52 204.692C1417.04 204.619 1416.57 204.595 1416.09 204.547C1416.69 204.377 1417.2 204.353 1417.52 204.692ZM1641.52 22.6362C1641.52 22.6362 1641.52 22.6362 1641.52 22.6604H1641.45C1641.45 22.6604 1641.48 22.6604 1641.52 22.6604M1648.88 32.944C1648.88 32.944 1648.88 32.9923 1648.82 33.0165C1648.82 33.0165 1648.76 33.0165 1648.73 33.0165C1648.79 33.0165 1648.82 32.9682 1648.85 32.944M1658.56 70.1342C1658.56 70.1342 1658.53 70.1342 1658.5 70.1342C1658.5 70.1342 1658.53 70.1342 1658.56 70.1342ZM1669.19 95.6616C1668.62 95.71 1668.08 95.7827 1667.51 95.8552C1667.95 95.4923 1668.56 95.5165 1669.19 95.6616ZM1668.97 70.2067C1668.97 70.2067 1668.87 70.2067 1668.84 70.2309C1668.84 70.2309 1668.84 70.2309 1668.84 70.2067H1668.97ZM1672.51 26.7496C1672.51 26.7496 1672.35 26.7497 1672.29 26.7739C1672.38 26.7739 1672.45 26.7739 1672.54 26.7739M1640.82 129.706C1641.11 129.658 1641.39 129.61 1641.67 129.561L1643.29 129.851C1643.38 129.972 1643.48 130.094 1643.64 130.215C1645.88 130.65 1648.25 130.771 1650.53 131.11C1650.59 131.11 1650.66 131.11 1650.72 131.11C1651.26 131.328 1651.79 131.545 1652.36 131.739C1652.08 131.884 1651.83 132.029 1651.54 132.174C1647.97 132.562 1644.77 131.957 1641.55 131.231C1641.01 131.037 1640.5 130.819 1640.06 130.577C1639.97 130.311 1640.25 130.045 1640.79 129.682M1652.55 132.779C1656.32 133.868 1660.4 132.779 1664.25 133.263C1665.08 133.263 1665.9 133.336 1666.69 133.263C1666.03 133.868 1665.42 134.183 1663.12 133.65C1660.97 133.166 1656.92 132.731 1654.7 134.473C1654.64 134.449 1654.55 134.425 1654.45 134.376C1653.79 133.747 1652.62 133.602 1651.48 133.433C1651.48 133.384 1651.48 133.312 1651.54 133.239C1651.89 133.07 1652.24 132.9 1652.59 132.755L1652.55 132.779ZM1655.15 143.74C1656.73 143.377 1658.53 143.934 1660.08 143.45C1660.05 143.45 1659.99 143.474 1659.95 143.498C1659.67 144.007 1659.57 144.587 1658.91 144.95C1658.85 144.418 1658.09 144.006 1656.89 143.716C1654.29 144.708 1652.3 144.466 1650.97 142.894C1651.45 142.894 1651.89 142.894 1652.36 142.894C1652.36 142.918 1652.3 142.942 1652.3 142.966C1652.71 143.765 1653.91 143.765 1655.15 143.74ZM1662.55 142.071C1662.33 142.143 1662.14 142.24 1661.98 142.361C1661.98 142.41 1661.95 142.458 1661.91 142.506C1661.72 142.337 1661.5 142.168 1661.66 142.095C1661.91 141.974 1662.23 141.998 1662.55 142.071ZM1652.84 141.296C1652.55 141.151 1652.24 141.079 1651.73 141.248C1651.73 141.248 1651.73 141.224 1651.73 141.2C1651.23 141.055 1650.72 140.982 1650.18 140.934C1650.69 140.716 1651.04 140.377 1651.16 139.845C1651.29 139.845 1651.45 139.893 1651.6 139.893C1651.67 139.893 1651.73 139.893 1651.79 139.869C1652.05 140.135 1652.4 140.329 1652.84 140.498C1652.84 140.546 1652.84 140.619 1652.81 140.667C1652.81 140.885 1652.81 141.079 1652.84 141.272M1641.67 167.695C1641.67 168.76 1640.54 169.219 1638.2 169.074C1637.47 169.026 1636.74 168.978 1636.01 168.953C1637.34 167.816 1639.24 167.405 1641.67 167.695ZM1647.97 174.567C1646.7 174.688 1645.37 174.494 1644.11 174.688C1644.01 174.494 1643.86 174.325 1643.64 174.131C1644.96 174.494 1646.58 174.349 1647.97 174.543M1653.72 173.841C1653.82 174.325 1653.31 174.519 1652.71 174.664C1652.77 174.373 1652.74 174.083 1652.68 173.817C1653.12 173.744 1653.72 173.672 1653.76 173.865M1659.38 171.252C1659.38 171.252 1659.42 171.252 1659.45 171.204C1659.45 171.204 1659.45 171.228 1659.45 171.252C1659.45 171.252 1659.42 171.252 1659.38 171.252ZM1616.37 179.624C1616.56 179.987 1616.25 180.084 1615.81 180.108C1616.06 179.963 1616.25 179.818 1616.37 179.624ZM1531.18 246.842C1531.18 246.842 1531.15 246.842 1531.11 246.842H1531.18ZM1531.27 246.891C1531.27 246.891 1531.24 246.891 1531.21 246.866H1531.24M1535.41 256.448C1535.41 256.448 1535.48 256.376 1535.51 256.327C1535.7 256.327 1535.89 256.327 1536.11 256.327C1536.17 256.473 1536.17 256.642 1536.24 256.787C1537.09 257.465 1537.98 257.682 1538.89 257.682C1537.41 257.731 1535.95 257.949 1534.47 257.973C1534.37 257.973 1534.28 257.973 1534.18 257.997C1534.18 257.634 1534.09 257.295 1533.55 257.053C1534.24 256.932 1534.91 256.763 1535.38 256.424M1536.46 252.625C1536.46 252.625 1536.3 252.867 1536.24 252.988C1536.24 253.012 1536.14 253.037 1536.05 253.061C1536.17 252.891 1536.33 252.746 1536.46 252.601M1543.23 256.981C1543.04 257.537 1542.69 257.997 1541.04 257.779C1540.44 257.682 1539.84 257.658 1539.24 257.682C1540.57 257.61 1541.9 257.15 1543.23 256.981ZM1548.03 239.414C1548.03 239.414 1547.91 239.487 1547.87 239.535C1547.84 239.535 1547.81 239.511 1547.75 239.486C1547.84 239.462 1547.94 239.438 1548.03 239.438M1548.79 274.378C1548.79 274.378 1548.82 274.378 1548.86 274.378C1548.86 274.378 1548.79 274.378 1548.76 274.402M1549.01 274.33C1549.01 274.33 1548.98 274.33 1548.95 274.354C1548.95 274.354 1549.01 274.354 1549.04 274.354M1555.72 249.625C1555.53 249.746 1555.28 249.746 1555.02 249.722C1555.02 249.673 1554.99 249.601 1554.93 249.552C1555.18 249.577 1555.43 249.601 1555.72 249.625ZM1556.73 246.334C1556.13 246.673 1555.53 246.891 1555.59 246.891C1555.43 246.891 1556.13 246.673 1556.7 246.334M1560.52 273.676C1558.94 273.096 1557.36 273.168 1555.75 273.676C1555.65 273.725 1555.59 273.797 1555.53 273.87C1555.34 273.87 1555.18 273.821 1554.99 273.797C1556.92 272.902 1558.75 272.781 1560.49 273.701M1563.72 258.069C1563.72 258.336 1563.72 258.578 1563.62 258.82C1563.28 258.699 1562.9 258.65 1562.52 258.578C1562.42 258.578 1562.3 258.529 1562.2 258.529C1562.11 258.529 1561.98 258.481 1561.88 258.457C1562.68 258.457 1563.28 258.336 1563.75 258.069M1568.94 224.872C1569.63 225.864 1570.52 226.372 1571.59 226.59C1569.44 226.59 1567.36 226.662 1565.39 227.049C1566.56 226.396 1567.7 225.67 1568.94 224.896M1576.37 226.372C1578.08 226.106 1579.18 225.549 1579.5 224.581C1579.85 223.493 1578.52 223.226 1577.22 223.105C1580.61 222.452 1583.64 223.88 1587.09 223.928C1586.24 224.001 1585.51 224.17 1585.03 224.702C1584.94 224.896 1584.97 225.065 1585.07 225.259C1582.63 225.404 1583.36 226.203 1583.42 227.17C1585.35 226.662 1585.19 226.009 1585.19 225.404C1586.43 226.275 1588.32 226.638 1590 227.146C1589.08 227.243 1588.29 227.606 1587.63 228.114C1587.5 228.283 1587.41 228.453 1587.37 228.598C1587.15 228.671 1586.9 228.719 1586.68 228.792C1586.52 228.695 1586.36 228.622 1586.14 228.55C1582.76 226.832 1578.84 226.154 1574.22 226.759C1573.87 226.807 1573.52 226.759 1573.21 226.759C1574.22 226.759 1575.26 226.566 1576.37 226.396M1589.15 262.764C1589.15 262.764 1588.86 262.715 1588.73 262.691C1588.83 262.691 1588.96 262.643 1589.08 262.643C1589.08 262.667 1589.15 262.715 1589.18 262.739C1589.18 262.739 1589.18 262.739 1589.18 262.764M1586.87 259.279C1586.87 259.158 1586.9 259.013 1586.93 258.916C1587.18 259.086 1587.44 259.255 1587.75 259.376C1587.44 259.328 1587.15 259.303 1586.87 259.279ZM1575.77 255.118C1575.99 254.9 1576.02 254.997 1576.18 255.093C1576.02 255.093 1575.89 255.093 1575.77 255.118ZM1602.3 248.343C1602.74 248.439 1603.19 248.56 1603.63 248.657C1603.03 248.633 1602.43 248.609 1601.83 248.657C1602.02 248.56 1602.21 248.439 1602.27 248.318M1605.62 252.359C1605.62 252.359 1605.59 252.359 1605.56 252.359C1605.43 252.359 1605.34 252.311 1605.21 252.286C1605.34 252.311 1605.5 252.335 1605.62 252.359ZM1605.18 260.61C1605.18 260.61 1604.96 260.489 1604.83 260.465C1604.55 260.32 1604.26 260.175 1603.95 260.054C1603.91 260.054 1603.85 260.005 1603.82 259.981C1603.66 259.739 1603.38 259.546 1603.06 259.352C1604.33 259.642 1605.18 260.368 1606.51 260.586C1606.06 260.586 1605.62 260.586 1605.21 260.586M1603.5 266.901C1603.6 266.732 1603.79 266.684 1604.04 266.635C1604.1 266.684 1604.23 266.732 1604.33 266.78C1604.04 266.829 1603.79 266.877 1603.5 266.901ZM1607.8 251.053V251.101C1607.8 251.101 1607.71 251.101 1607.65 251.077C1607.68 251.077 1607.74 251.077 1607.8 251.053ZM1616.47 271.426C1616.47 271.426 1616.47 271.45 1616.47 271.475C1616.18 271.475 1615.96 271.547 1615.77 271.668C1615.55 271.45 1615.14 271.257 1614.82 271.063C1615.43 271.184 1615.93 271.329 1616.47 271.426ZM1624.06 212.023C1623.96 212.169 1623.87 212.338 1623.71 212.459C1623.49 212.289 1623.24 212.193 1622.92 212.12C1623.3 212.072 1623.68 212.048 1624.06 212.023ZM1640.63 234.236C1640.63 234.236 1640.73 234.212 1640.76 234.187C1640.44 234.429 1640.22 234.72 1640.03 234.986C1639.37 234.599 1639.52 234.502 1640.63 234.212M1644.81 230.945C1643.73 230.51 1644.05 229.711 1643.45 229.154C1645.28 229.372 1645.69 230.001 1644.81 230.945ZM1670.33 244.084C1670.2 244.302 1670.23 244.568 1670.2 244.81C1670.11 244.447 1669.79 244.205 1669.28 244.06C1669.63 244.035 1669.98 244.06 1670.33 244.084ZM29.7143 283.331C29.7143 283.331 29.746 283.307 29.7776 283.282C29.8092 283.282 29.8408 283.307 29.904 283.331C29.8408 283.331 29.7775 283.331 29.7143 283.331ZM40.9728 146.499C40.9728 146.499 40.9728 146.475 40.9411 146.45C40.9411 146.45 40.9728 146.45 41.0044 146.45C41.0044 146.475 41.0678 146.499 41.0678 146.523C41.0678 146.523 41.0044 146.523 40.9728 146.523M129.966 8.38433C129.966 8.38433 129.776 8.38433 129.713 8.38433C129.808 8.33594 129.934 8.3118 130.06 8.2876C130.06 8.3118 129.997 8.36016 129.997 8.40855M127.436 7.85208C127.436 7.85208 127.436 7.73108 127.436 7.68268C127.562 7.73108 127.657 7.77946 127.815 7.82786C127.689 7.82786 127.562 7.82786 127.436 7.82786M98.4671 56.463C98.4671 56.463 98.3723 56.463 98.309 56.463C98.309 56.4388 98.309 56.3905 98.309 56.3663C98.3406 56.3905 98.4039 56.4146 98.4671 56.463ZM93.9131 51.5512C93.9131 51.5512 94.0079 51.5027 94.0712 51.4785C94.1661 51.5511 94.2611 51.6238 94.4192 51.7206C94.2611 51.648 94.1029 51.6238 93.9447 51.5754M92.5849 20.0471C92.5849 20.0471 92.5849 20.0229 92.5849 19.9987C92.5849 19.9987 92.5849 20.0472 92.5849 20.0714C92.5849 20.0714 92.5849 20.0713 92.5849 20.0471ZM84.6786 40.1303C84.6786 40.1303 84.6469 40.1304 84.6153 40.082C84.6469 40.082 84.6787 40.082 84.7103 40.082C84.7103 40.082 84.7103 40.082 84.6786 40.082M83.9197 19.0551L83.7299 18.9825H83.9513C83.9513 18.9825 83.9513 19.0309 83.9513 19.0551M83.793 38.0252C83.793 38.0252 83.8564 38.0252 83.888 38.0252C83.888 38.0252 83.8247 38.0252 83.793 38.0252ZM76.9305 51.7206C77.3416 51.769 77.6578 51.9141 77.9108 52.0835C77.5629 51.9867 77.2467 51.8658 76.9305 51.7206ZM73.3252 37.5897C73.3252 37.5897 73.1672 37.5172 73.0723 37.493C73.1672 37.493 73.2303 37.5413 73.3252 37.5655C73.3252 37.5655 73.3252 37.5655 73.3252 37.5897ZM64.0907 71.8763C64.0907 71.8763 64.059 71.8522 64.0274 71.828C64.0274 71.828 64.0591 71.828 64.0907 71.828V71.8763ZM1735 51.1399C1734.81 50.7286 1734.08 50.7044 1733.45 50.6802C1723.65 50.1962 1714.13 47.6071 1704.01 49.6396C1703 49.6396 1701.89 49.7848 1701.16 49.2283C1698.98 47.0506 1697.37 44.8003 1692.69 43.5179C1689.05 42.5258 1689.71 40.7595 1693.44 39.5738C1694.52 39.2351 1696.42 39.0173 1696.13 38.2431C1695.41 36.2589 1698.79 35.9443 1700.31 34.8555C1702.49 35.1458 1703.44 33.7182 1705.49 33.7666C1706.41 33.7666 1707.68 33.8151 1707.61 33.0892C1707.58 32.7746 1706.73 32.3633 1706.06 32.1939C1705.08 31.9519 1703.94 31.8551 1702.9 31.7099C1701.48 31.7825 1700.72 31.3469 1700.15 30.742C1699.2 28.2014 1696.04 27.282 1691.55 27.3788C1690.28 26.3383 1688.2 26.0722 1686.17 25.7092C1684.49 25.4189 1682.15 25.2011 1681.4 24.5236C1679.02 22.4427 1674.66 22.2733 1671.47 21.0151C1670.58 20.6763 1669.19 20.2407 1668.43 20.9182C1667.7 21.5715 1669.16 21.9345 1669.92 22.3701C1670.67 22.8056 1673.05 22.4667 1672.13 23.6282C1671.53 24.3783 1670.11 24.9591 1668.59 24.7413C1661.22 23.604 1653.41 23.4589 1644.96 21.7651C1648.32 21.6442 1650.34 21.5716 1653.34 21.4506C1648.79 19.4423 1643.13 19.3213 1640.19 16.95C1640.03 16.8049 1639.24 16.9258 1638.77 16.8774C1634.08 16.3451 1629.31 16.3693 1624.57 15.7402C1620.93 15.2563 1617.17 14.5061 1612.93 14.6271C1605.72 14.8207 1598.1 15.7159 1591.26 13.8528C1584.02 11.8929 1576.5 11.4574 1568.62 11.651C1564.7 11.6026 1560.46 9.61833 1556.89 12.1348C1545.63 12.7155 1534.31 13.1511 1522.99 13.1511C1520.61 13.1511 1518.05 12.522 1516.85 14.2883C1516.66 14.3851 1516.47 14.3851 1516.25 14.2883C1507.27 13.9496 1498.29 15.0626 1489.31 14.2883C1486.21 13.4898 1483.14 12.4252 1479.63 13.7561H1479.69C1475.42 13.9254 1470.99 13.0059 1466.88 14.2641C1466.88 14.2641 1466.88 14.2641 1466.91 14.2641C1449.81 14.2641 1432.7 14.2641 1415.59 14.2641C1414.45 14.2641 1413.34 14.2641 1412.23 14.2641C1408.53 14.7964 1404.87 12.885 1401.17 14.2158C1400.5 14.3368 1400 14.9659 1399.14 14.3852C1396.17 12.764 1393.04 14.8448 1390.03 14.2883C1389.59 14.2883 1389.18 14.2883 1388.74 14.2883C1385.99 14.2883 1383.23 14.2883 1380.48 14.2641C1380.14 14.0947 1379.79 13.8286 1379.44 13.8044C1368.62 13.3688 1357.84 12.2074 1346.93 12.643C1345.51 12.6914 1343.77 13.1269 1342.69 12.8366C1336.78 11.2396 1330.29 11.6993 1324.22 11.7235C1315.56 11.7477 1306.86 11.3605 1298.1 12.0138C1287.92 12.7639 1277.83 14.1431 1267.42 14.1189C1265.4 14.1189 1262.81 13.6835 1261.04 14.7965C1255.18 14.0948 1249.4 15.4981 1243.77 15.1594C1236.27 14.6754 1228.84 14.9175 1221.38 14.7723C1219.86 14.7481 1218.09 14.4577 1216.92 15.3288C1214.61 15.4739 1212.11 14.7723 1210.06 15.8369C1198.86 15.6676 1187.67 15.716 1176.6 16.9016C1176.12 16.5145 1175.39 16.3451 1174.57 16.3451C1166.16 16.2725 1157.78 17.192 1149.37 16.3451C1149.05 16.3209 1148.7 16.345 1148.39 16.3934C1142.35 17.2645 1136.24 17.5065 1130.01 17.3856C1127.42 17.3372 1124.86 17.434 1122.8 18.4744C1121.13 18.547 1119.26 18.0872 1117.84 18.9583C1116.98 19.297 1116.13 19.6601 1114.96 19.5149C1108.38 19.0309 1101.77 20.5312 1095.19 19.5391H1095.26C1089.6 17.7485 1086.53 20.5311 1082.51 21.6442C1080.61 21.62 1078.72 21.5715 1076.82 21.5473C1076.79 21.6199 1076.72 21.6683 1076.69 21.7409C1076.63 21.7409 1076.53 21.6925 1076.47 21.6683L1076.85 21.5473C1076.44 21.0634 1076.06 20.6037 1075.65 20.1198C1074.7 18.1841 1071.66 17.7485 1066.48 17.9905C1061.32 18.2324 1057.28 21.5473 1051.39 19.4664C1050.89 19.2971 1049.78 18.7163 1049.18 19.2728C1048.83 20.7488 1051.39 20.2892 1052.59 20.8699C1048.8 22.0555 1047.66 19.8293 1045.19 19.5632H1045.23C1045.19 18.9341 1045.23 18.2082 1043.68 18.2566C1042.54 18.305 1042.47 18.9583 1042.38 19.4907C1041.37 20.0472 1040.1 20.144 1038.74 20.0956C1036.34 19.9262 1037.16 17.9662 1034.6 17.8936C1029.57 16.1272 1024.1 17.9179 1018.95 17.3613L1018.79 17.4581C1018.79 17.4581 1018.91 17.3855 1018.98 17.3613C1014.23 16.2725 1009.08 17.1677 1004.18 16.3934C999.307 15.6191 994.278 15.6918 989.439 16.7564C988.617 16.95 987.384 16.95 986.562 16.7564C980.237 15.3288 973.501 16.4419 967.049 15.8612C961.072 15.3046 955.095 16.5628 949.118 16.2967C944.184 16.0789 939.409 15.6675 934.349 15.6675C916.828 15.7159 899.277 16.466 881.788 15.3288C881.124 15.2804 880.333 15.6191 879.637 15.7643C860.378 15.5949 841.086 15.3771 821.922 16.8289L821.7 16.9741C821.7 16.9741 821.637 16.9741 821.606 16.9741C821.7 16.9257 821.795 16.9016 821.922 16.8532C819.929 15.4014 817.368 15.1836 814.174 15.4982C808.07 16.0789 802.093 15.7401 795.989 14.8932C789.221 13.9496 782.169 13.2237 775.275 12.8366C762.814 12.1349 750.165 12.3284 737.578 12.159C734.858 11.0944 731.727 11.9171 728.849 11.6025L728.659 11.7235C728.723 11.6751 728.786 11.6509 728.849 11.6025C728.122 11.4332 727.426 11.2395 726.699 11.1186C719.235 9.93293 711.772 11.6994 704.308 11.0703L704.118 11.1912C704.118 11.1912 704.277 11.0945 704.34 11.0703C703.96 10.9251 703.549 10.683 703.138 10.6588C691.721 10.1507 680.684 8.43283 669.426 7.58595C662.879 7.10202 655.953 6.85991 649.28 7.90037C645.96 7.7068 642.703 7.1261 639.319 7.46485C638.022 7.39226 636.567 7.65842 635.524 7.00511C634.607 6.06144 632.994 6.25508 631.666 6.47285C628.282 7.05357 625.024 6.88419 621.609 6.47285C619.869 6.25508 617.845 5.77108 615.948 6.40019C608.453 5.45652 600.926 5.45652 593.431 6.40019C591.913 6.40019 590.363 6.42443 588.845 6.44863C584.987 6.30345 581.065 5.81958 577.302 6.06155C569.427 6.56968 561.553 6.78744 553.646 6.95681C547.29 7.10199 540.996 5.6743 534.671 6.85993C530.908 5.69849 526.544 6.44861 522.622 5.81949C516.013 4.80324 509.751 6.93264 503.204 6.37612C501.781 5.35986 499.726 5.28724 497.607 5.28724C491.946 5.28724 486.317 5.31134 480.656 5.33553C474.078 3.49659 466.994 4.34359 460.1 4.2468C459.467 4.41618 458.866 4.60968 458.234 4.77906C450.106 4.82745 441.978 5.06949 433.882 4.85172C430.024 4.73073 426.103 5.57762 422.466 4.85172C418.449 4.02903 414.496 4.17413 410.48 4.46449C404.06 4.92422 397.862 6.3276 391.125 5.19036C384.168 4.02892 376.641 4.36773 369.62 4.34353C360.765 4.34353 351.91 5.14208 343.055 4.10163C341.379 3.90805 339.861 4.07733 338.596 4.75484C338.438 4.90002 338.248 4.92428 337.995 4.8275C336.287 4.65812 334.548 4.82746 332.809 4.48871C327.844 3.47245 322.91 3.83543 318.04 4.8275C317.882 4.92428 317.66 4.97269 317.407 4.99689C317.629 4.9243 317.85 4.87587 318.071 4.80328C314.972 4.80328 311.778 4.41611 308.869 5.38397C308.141 5.45656 307.477 5.43245 307.098 5.02111C307.034 4.87593 306.908 4.77913 306.781 4.70654C305.833 3.98064 304.22 4.271 302.891 4.2468C296.535 4.2226 290.178 4.2468 283.821 4.2468C280.248 4.2468 276.801 3.76287 273.354 3.49671C264.151 2.77081 255.327 0.520513 245.713 1.3674C244.006 1.51258 241.697 1.87545 240.59 1.43991C235.467 -0.544216 229.363 0.0365031 224.24 0.230076C213.487 0.665616 202.767 0.302678 192.077 0.544644C185.531 0.714021 178.953 1.02854 172.406 0.955946C169.75 0.931749 167.378 0.859183 165.038 1.58508C165.101 1.63348 165.196 1.68184 165.259 1.70604H165.228L165.038 1.58508C159.788 0.907576 154.412 1.12544 149.099 1.07705C146.158 1.05285 143.438 1.85127 140.465 1.6093C131.99 0.9076 123.451 0.738265 114.881 0.593085C104.254 0.399512 102.958 0.931803 99.4475 6.30346C98.1192 6.85998 96.7595 7.41651 95.4312 7.97303C92.7431 8.26339 91.2566 9.18288 90.5608 10.5621L90.7822 10.683C90.719 10.6346 90.6241 10.5863 90.5608 10.5379C86.7658 13.0059 84.6471 15.8854 83.7616 19.0309C81.1683 20.9424 79.1759 22.975 79.0178 25.4189C76.2348 27.3062 75.6654 29.6048 75.0961 31.8793C74.7166 32.3633 74.3372 32.8229 73.9577 33.3068C70.6371 34.3231 72.5978 36.0895 71.9336 37.4687C71.9336 37.4687 71.9337 37.4688 71.997 37.493C71.997 37.493 71.9653 37.4929 71.9336 37.4687C68.0121 41.3402 69.4986 45.4052 70.8268 49.3977C71.8705 52.5432 74.1475 55.5437 71.2696 58.8102C70.226 59.9958 70.5739 61.5202 70.2576 62.8994H70.1626C68.3916 63.2624 67.2532 63.8672 67.0951 64.9319C66.1147 65.4884 65.1344 66.0208 64.154 66.5531C62.3514 66.9403 61.9719 67.908 61.2129 68.7065C60.7701 69.9406 58.3034 71.1504 61.2129 72.3845C61.7821 73.8363 63.395 74.7074 66.1147 74.9978C66.8421 75.9414 68.3284 76.1108 69.9729 76.0624C70.637 76.2802 71.3328 76.5221 71.997 76.7398C72.0918 76.6431 72.0919 76.5463 72.0603 76.4495C72.1868 76.4495 72.2816 76.4495 72.4081 76.4737C72.2816 76.5705 72.1235 76.6431 71.997 76.7398C74.3688 79.0869 78.1639 80.4177 82.7812 81.2888C90.8772 82.8616 99.2577 83.9505 107.354 85.4265C116.999 87.1687 126.898 88.1849 136.828 88.5963C137.967 88.6446 139.137 88.693 140.276 88.7414C139.485 89.1044 138.694 89.4916 137.904 89.8545C134.425 89.056 131.009 87.7494 127.277 89.4915C126.518 90.7981 124.336 91.0885 122.344 91.4999C121.395 91.4999 120.415 91.524 119.466 91.5482H119.403C117.126 90.8949 114.786 90.4352 112.161 90.8223C108.777 91.3304 105.077 90.3626 101.819 91.4272C100.428 91.5482 99.068 91.6935 97.6765 91.8144C96.9491 91.8144 96.2218 91.8143 95.5577 92.0079C95.0833 92.0079 94.5772 92.0322 94.0712 92.0564C90.9403 92.5161 87.8095 92.9758 84.6786 93.4356C84.4256 93.4356 84.2043 93.4839 83.9513 93.5323C81.3264 93.7985 79.239 95.0809 76.2663 94.7421C74.4953 94.234 73.009 94.7906 71.491 95.1536C70.0995 95.444 68.5498 95.5891 67.601 96.3392C66.0514 96.194 64.8181 96.5327 63.6796 97.0409C62.5727 97.1135 61.3392 96.823 60.4537 97.4279C54.0022 99.0249 49.1952 101.566 45.4318 104.76C44.6096 105.147 44.5464 105.679 44.5464 106.211C43.4712 106.889 42.6805 107.615 42.7438 108.558C41.6053 109.139 41.7318 109.865 41.9848 110.615C42.0797 111.801 42.1745 112.986 42.2693 114.172C42.2693 114.656 42.2695 115.164 42.396 115.648C42.3327 115.793 42.3958 115.89 42.6805 115.938C42.6488 119.447 42.9019 122.955 41.542 126.416C40.4984 127.021 40.6249 127.771 40.5616 128.496C39.8026 129.368 38.6957 130.19 38.9487 131.255C38.6325 131.957 38.3163 132.683 38.0317 133.384C37.3992 133.844 37.5574 134.328 37.7155 134.836C34.9325 138.296 36.4188 142.143 34.1102 145.628C33.7307 146.475 33.4144 147.297 33.8888 148.168V149.185C33.7307 150.104 33.5725 151.024 33.4144 151.943C31.0109 154.774 32.7187 157.799 31.77 160.702C30.5682 163.315 28.5758 165.759 26.7732 168.276C25.0654 170.695 23.9902 173.502 26.1723 176.188C26.4253 176.841 26.6466 177.495 26.8996 178.148C25.6979 179.551 23.9586 180.906 25.7928 182.528C27.4689 183.907 30.5366 184.27 32.7504 185.262C34.2684 187.657 37.4625 189.254 41.4472 190.464C41.9532 191.093 42.5856 191.65 43.313 192.182C40.5616 192.134 37.7786 192.158 35.0273 192.279C33.3828 192.303 31.675 192.158 30.4733 193.005C28.386 193.368 28.1014 194.239 28.3544 195.255C27.3108 197.409 29.4296 199.828 26.4568 201.837C24.9388 202.272 22.1875 201.498 21.9345 203.167C21.4917 204.111 21.049 205.055 20.6063 205.998C18.8036 208.563 15.2617 210.741 14.566 213.548C10.265 220.589 6.46997 227.751 2.13734 234.768C-2.10042 241.567 0.555938 247.375 4.95182 253.52C8.36732 258.287 12.9847 263.03 12.6052 268.281C12.2573 273.096 14.5658 276.822 22.5353 279.266C22.7883 280.137 22.8832 280.96 22.1559 281.831C21.2387 282.944 22.3139 283.476 24.4961 283.403C25.1602 283.452 25.8243 283.476 26.4885 283.524C30.6313 283.912 34.7742 284.299 38.9171 284.686C41.5103 285.146 44.1353 285.484 46.8867 285.049C47.2662 285.097 47.6142 285.17 47.9937 285.218C50.4288 285.605 52.8954 285.605 55.3305 285.242C58.3032 285.702 61.2445 285.702 64.1223 285.025C70.6371 284.686 77.0253 283.428 83.6666 284.395C89.6121 285.484 95.6208 286.331 101.977 285.629C102.8 285.799 103.654 285.799 104.508 285.775C105.709 285.847 106.943 285.92 108.144 285.993C109.03 286.234 109.947 286.234 110.833 286.017C112.319 285.944 113.837 285.847 115.323 285.75C115.608 285.75 115.893 285.751 116.146 285.702C120.004 285.702 123.799 285.581 127.341 284.637C130.503 285.17 133.666 285.315 136.86 284.637C137.682 285.025 138.631 285 139.611 284.879C139.358 284.686 139.295 284.492 139.327 284.323C139.421 284.468 139.516 284.637 139.611 284.879C144.292 285.17 149.004 285.121 153.685 285.509C156.689 285.751 160.136 286.113 163.109 285.049C164.089 285 165.038 284.976 166.018 284.928C171.141 285.242 176.17 284.589 181.135 284.202C183.665 284.008 186.638 284.637 188.852 283.452C190.907 283.282 192.994 282.944 195.05 282.944C207.384 283.016 219.718 283.016 231.956 282.121C240.748 281.903 249.255 282.75 257.762 283.839C261.842 284.371 266.143 284.371 270.254 284.879C279.868 286.089 289.482 285.799 299.16 285.388C300.077 285.291 301.026 285.218 301.943 285.121C303.366 285.387 304.821 285.533 306.307 285.363C308.078 285.436 309.849 285.508 311.652 285.581C323.511 286.089 335.275 284.492 347.135 285.146C350.582 285.75 354.156 285.291 357.666 285.509C362.758 286.259 367.628 284.323 372.72 285.17C377.59 285.484 382.428 285.436 387.299 285.17C392.643 283.936 398.367 284.226 403.933 283.911C408.298 283.791 412.82 284.395 416.995 283.21C418.924 283.282 420.884 283.355 422.814 283.428C425.091 283.621 427.399 283.912 429.486 283.04C430.593 282.992 431.669 282.919 432.776 282.871C435.084 282.75 437.488 283.137 439.638 282.363C442.548 281.516 445.868 282.508 448.778 281.758C450.391 281.686 452.035 281.613 453.68 281.516C454.122 281.516 454.597 281.516 455.039 281.444C456.178 281.395 457.443 281.516 458.076 280.79C458.645 280.935 459.214 281.105 459.783 281.201C464.907 282.121 470.156 280.863 475.153 281.25C485.653 282.073 496.152 282.363 506.715 282.169C508.296 282.653 509.909 282.653 511.585 282.363C524.393 282.436 537.201 282.508 550.01 282.581C553.52 283.234 557.252 282.847 560.794 283.258C566.328 283.597 571.894 283.96 577.428 284.299C579.01 284.589 580.591 284.589 582.172 284.299C596.182 284.758 610.224 284.371 624.265 284.492C624.392 284.541 624.518 284.565 624.645 284.589C627.27 285.363 630.179 285.073 632.994 285.17C633.247 285.17 633.5 285.194 633.753 285.194C635.239 285.267 636.725 285.339 638.212 285.412C642.386 286.21 646.782 285.533 651.051 285.944C657.218 286.331 663.512 286.621 669.521 285.871C672.493 285.508 674.929 284.71 677.712 285.871L678.154 285.92L678.629 285.871C681.032 286.283 683.341 285.872 685.681 285.678C686.756 285.847 687.832 286.041 688.907 286.21C691.595 286.96 694.409 286.5 697.161 286.476C702.917 287.057 708.672 286.791 714.46 286.573C722.429 286.743 730.431 285.968 738.4 286.597C740.487 286.791 742.606 286.839 744.693 286.573C749.153 286.96 753.612 286.791 758.039 286.452C761.36 286.38 764.68 286.331 768.001 286.259C769.424 286.259 770.847 286.259 772.27 286.186C774.737 286.113 777.204 286.017 779.671 285.92C783.624 285.92 787.609 285.944 791.562 285.968C792.447 286.041 793.364 286.113 794.25 286.186C799.468 286.984 804.749 286.501 809.999 286.38C812.561 287.251 815.47 287.009 818.064 286.815C824.768 286.283 831.536 286.501 838.209 286.549C845.957 286.597 853.642 286.162 861.358 286.307C865.406 286.307 869.423 286.259 873.471 286.234C876.064 287.13 878.657 286.743 881.25 286.234C882.61 286.234 883.97 286.234 885.298 286.234C890.074 286.452 894.849 286.622 899.593 286.234C900.257 286.234 900.889 286.234 901.522 286.065C907.847 286.694 914.077 285.775 920.339 285.799C935.772 285.896 951.173 285.557 966.606 286.234C978.055 286.743 989.376 284.928 1000.82 284.42C1005.76 284.202 1010.85 284.178 1015.63 283.161C1025.59 283.307 1035.55 283.5 1045.48 282.581C1052.91 283.113 1060.44 283.137 1067.71 282.387C1072.3 281.903 1077.2 282.895 1081.47 281.419C1085.77 282.024 1089.72 280.935 1093.9 280.766C1094.24 280.597 1094.59 280.5 1094.94 280.476C1094.59 280.548 1094.24 280.645 1093.9 280.766C1100.79 281.201 1107.65 281.443 1114.42 280.427C1114.83 280.427 1115.21 280.355 1115.59 280.234C1116.22 280.185 1116.83 280.161 1117.46 280.113C1118.69 280.234 1119.92 280.403 1120.81 279.725C1124.7 278.467 1128.46 277.935 1131.91 280.185C1132.1 280.306 1132.83 280.185 1133.3 280.185C1134.44 280.258 1135.58 280.33 1136.72 280.403C1140.92 280.984 1145.13 280.887 1149.37 280.403H1152.53C1158.92 280.96 1165.27 280.693 1171.63 280.306C1179.57 279.363 1187.38 278.032 1195.57 277.741C1196.05 277.814 1196.55 277.814 1197.06 277.814C1198.39 277.887 1199.75 277.959 1201.07 278.032C1203.19 278.588 1205.34 279.169 1207.46 279.725C1210.34 281.008 1213.53 280.355 1216.63 280.137C1217.96 280.137 1219.29 280.137 1220.62 280.137C1222.74 280.258 1224.86 280.379 1226.98 280.5C1227.13 280.5 1227.32 280.5 1227.48 280.5C1234.12 280.814 1240.76 280.887 1247.44 280.258C1247.97 280.258 1248.51 280.234 1249.02 280.209L1249.43 280.887C1250.79 280.621 1251.11 279.968 1251.42 279.314C1252.47 279.121 1253.48 278.951 1254.52 278.782C1256.42 278.951 1258.32 279.266 1260.21 278.782C1262.08 278.685 1264.07 279 1265.65 278.153C1267.14 278.346 1268.63 278.346 1270.14 278.322C1272.61 278.419 1275.08 278.492 1277.51 278.588C1280.26 280.089 1283.68 278.419 1286.59 279.145L1286.94 279.217L1287.22 279.096C1288.17 279.121 1289.09 279.145 1290.04 279.169C1292.53 279.387 1295.03 279.411 1297.5 279.169C1298.35 279.169 1299.21 279.169 1300.06 279.169C1301.39 278.975 1302.72 278.806 1304.05 278.612C1305.78 278.491 1307.52 278.371 1309.3 278.25C1311.95 278.104 1314.58 277.959 1317.2 277.814C1321.09 277.645 1324.95 277.451 1328.84 277.282C1329.54 277.282 1330.26 277.257 1330.96 277.185C1333.74 276.943 1336.94 277.548 1339.05 276.024C1339.78 276.193 1340.51 276.217 1341.27 276.193C1342.63 276.29 1343.96 276.411 1345.32 276.507C1346.23 276.507 1347.15 276.483 1348.07 276.459C1351.29 276.362 1354.55 276.29 1357.78 276.193C1359.9 276.217 1362.01 276.241 1364.13 276.024C1366.41 276.024 1368.62 275.878 1370.77 275.443H1379.69C1380.14 275.322 1380.61 275.201 1381.08 275.104C1388.39 275.201 1395.69 275.322 1402.97 275.419C1406.07 276.072 1409.36 276.048 1412.61 276.144C1412.77 276.169 1412.96 276.193 1413.15 276.193C1414.7 276.362 1416.28 276.556 1417.86 276.725C1422.96 277.79 1428.3 278.032 1433.71 278.08C1436.49 278.491 1439.34 278.322 1442.18 278.298C1443.51 278.854 1444.93 278.685 1446.36 278.467C1451.92 277.669 1457.46 278.056 1462.96 278.564C1464.7 278.903 1466.22 278.975 1467.48 278.734C1474.54 279.121 1481.59 279.871 1488.36 277.766C1489.27 277.475 1490.29 277.427 1491.11 277.766C1494.93 279.387 1494.33 277.427 1494.9 276.435C1496.67 276.362 1498.41 276.314 1500.18 276.241C1504.96 276.048 1509.86 276.798 1514.51 275.636C1516.69 275.564 1518.91 275.491 1521.09 275.419C1525.8 275.443 1530.48 275.491 1535.19 275.515C1536.02 275.564 1536.81 275.612 1537.63 275.66C1538.99 275.927 1540.38 276.169 1541.74 276.435C1542.5 277.064 1543.16 278.032 1544.62 277.911C1546.48 277.741 1545.5 276.677 1545.79 275.999C1549.2 276.072 1552.02 274.475 1555.59 275.031C1559.92 274.789 1564.22 274.572 1568.56 274.33C1577.67 274.136 1586.8 274.306 1595.82 273.289C1595.79 273.265 1595.72 273.241 1595.69 273.217L1595.82 273.289C1597.49 273.41 1599.17 273.386 1600.78 273.047C1603.19 273.507 1605.56 272.708 1607.93 272.95C1611.92 273.918 1615.9 272.95 1619.88 272.95C1620.33 272.878 1620.8 272.829 1621.24 272.757C1622.57 272.733 1623.93 272.709 1625.26 272.684C1626.18 272.878 1626.97 272.83 1627.57 272.394C1630.1 271.45 1633.29 271.692 1636.01 271.063C1637.12 269.756 1635.86 269.079 1633.74 268.692C1632.22 268.426 1630.45 268.45 1629.56 267.53C1629.56 267.53 1629.53 267.53 1629.5 267.506C1630.7 267.579 1631.9 267.337 1633.23 267.409C1634.94 267.506 1638.23 267.192 1635.92 265.304C1636.05 265.014 1636.3 264.385 1636.71 264.603C1638.83 265.788 1639.11 265.329 1639.02 264.022C1639.02 263.732 1639.56 263.441 1639.84 263.175C1639.27 261.917 1638.8 260.634 1638.07 259.4C1637.82 258.965 1636.74 258.965 1635.92 259.062C1636.08 258.529 1633.45 258.311 1635.25 257.634C1636.08 257.319 1637.15 257.077 1638.13 257.731C1639.65 258.723 1639.84 258.795 1641.64 258.916C1641.64 259.013 1641.58 259.11 1641.58 259.207C1642.4 260.175 1644.01 259.618 1645.28 259.739C1645.88 259.691 1646.42 259.594 1646.92 259.449C1647.49 259.449 1648.03 259.497 1648.6 259.521C1652.02 259.4 1653.72 257.707 1656.51 256.981C1657.42 257.077 1657.93 256.715 1658.5 256.448C1663.21 256.134 1663.72 252.359 1669.22 252.649C1669.25 252.311 1669.57 251.899 1669.31 251.657C1667.8 250.278 1669.38 249.915 1671.4 249.455C1673.17 249.068 1674.5 248.246 1675.42 247.326C1675.89 247.157 1676.81 246.939 1676.78 246.794C1676.59 245.971 1675.2 245.899 1674.03 245.705C1673.93 244.713 1673.62 243.794 1671.37 243.624C1670.33 243.285 1669.28 242.971 1668.27 242.632C1669 241.035 1671.91 240.019 1672.22 238.301C1673.65 237.599 1673.46 236.656 1673.55 235.76C1675.1 235.034 1676.65 234.308 1678.17 233.583C1678.99 233.316 1680.57 232.905 1678.55 232.59C1676.65 232.3 1675.39 232.01 1675.2 230.897C1675.36 230.268 1675.77 229.614 1674.41 229.227C1673.39 229.421 1673.2 230.026 1672.45 230.364C1672.73 229.3 1672.38 228.453 1671.56 227.751C1672.07 227.993 1672.6 228.211 1673.2 228.332C1674.28 226.807 1674.41 225.041 1677.32 224.001C1678.17 223.71 1678.04 223.251 1677.32 222.912C1676.56 222.573 1676.08 222.791 1675.29 223.057C1672.6 224.001 1672.35 223.88 1672.22 221.775C1672.73 220.952 1674.53 221 1675.36 220.42C1676.9 220.323 1678.68 220.637 1679.91 219.573C1675.45 218.048 1670.9 219.331 1666.44 219.355C1663.88 218.944 1661.38 219.524 1658.82 219.403C1656.79 219.307 1654.83 218.895 1654.45 217.734C1654.01 216.403 1656 216.064 1657.99 215.798C1659.23 215.629 1660.36 215.314 1661.57 215.048H1666.94C1664.89 214.395 1664.16 213.862 1662.71 214.032H1662.55C1660.59 213.112 1658.25 212.87 1655.78 212.701C1653.15 212.507 1651.35 212.798 1651.42 214.927C1650.31 213.741 1651.7 213.209 1651.16 212.604C1651.1 212.531 1651 212.507 1650.94 212.435C1654.1 212.289 1657.14 211.999 1659.61 210.789C1660.71 211.176 1660.11 211.564 1659.89 212.072C1659.45 213.233 1660.71 212.459 1661.35 212.362C1662.42 211.176 1662.01 210.305 1659.61 209.846C1657.23 209.216 1654.96 208.854 1652.52 209.846C1651.16 210.402 1649.64 210.547 1648.16 210.233C1649.87 210.088 1651.64 209.942 1651.57 208.708C1651.51 207.692 1649.39 207.16 1647.49 207.305C1640.79 207.813 1634.56 206.192 1628.01 206.095C1627.73 206.023 1627.44 205.998 1627.16 205.998C1625.32 207.474 1622.54 205.877 1620.45 206.555C1620.45 206.531 1620.49 206.482 1620.52 206.458C1620.45 206.192 1620.17 205.998 1619.73 205.877C1615.39 205.829 1611.12 205.393 1606.79 205.2C1601.23 204.958 1595.44 205.466 1590.13 204.111C1589.9 203.99 1589.75 203.821 1589.68 203.651C1588.51 202.562 1586.55 202.635 1584.62 202.635C1578.84 202.635 1573.14 203.337 1567.36 203.337C1559.04 203.796 1550.66 203.458 1542.4 204.208C1541.11 204.571 1539.11 204.232 1537.6 204.401C1536.05 204.401 1534.5 204.522 1532.95 204.498C1531.62 204.498 1530.29 204.498 1528.93 204.498C1527.38 204.546 1526.62 203.796 1525.45 203.482C1525.39 203.409 1525.33 203.313 1525.26 203.24C1526.18 202.272 1528.14 202.466 1529.72 202.272C1530.89 202.175 1530.54 198.86 1533.36 201.812C1533.96 202.441 1536.81 203.192 1537.28 201.304C1537.63 199.998 1539.37 200.24 1540.89 200.167C1542.5 200.481 1544.43 202.175 1544.93 201.449C1546.14 199.828 1550.25 199.877 1550.56 198.11C1550.72 197.167 1551.8 196.876 1553.22 197.021C1553.31 197.021 1553.41 197.021 1553.54 197.021C1556.95 197.312 1560.21 196.755 1563.53 196.537C1564.29 196.537 1565.05 196.562 1565.81 196.61C1566.09 196.61 1566.41 196.586 1566.69 196.562C1569.66 197.312 1572.32 198.909 1576.12 197.578C1578.14 196.223 1581.21 198.739 1583.14 197.021C1583.14 196.368 1583.86 195.521 1582.38 195.279C1584.34 194.577 1586.46 194.166 1588.89 194.505C1588.92 194.481 1588.99 194.457 1589.02 194.408C1589.08 194.408 1589.18 194.408 1589.24 194.408C1590.44 194.36 1591.61 193.779 1592.88 194.336C1593.83 194.336 1594.74 194.336 1595.66 194.336C1598.73 193.053 1602.81 195.57 1606.35 193.343H1601.1C1601.64 193.222 1602.17 193.102 1602.71 192.981C1610.43 192.69 1618.15 192.424 1625.61 191.238C1625.64 191.093 1625.7 190.948 1625.8 190.827C1625.86 190.948 1625.83 191.093 1625.61 191.238C1630.07 191.021 1634.21 189.811 1638.89 190.174C1639.3 190.198 1639.68 190.174 1640.03 190.101C1641.45 190.174 1642.91 190.295 1644.33 190.537C1643.83 189.787 1643.07 189.206 1643.13 188.649C1643.35 186.375 1640.95 186.036 1637.41 185.746C1632.69 185.359 1628.04 185.455 1623.36 185.359C1619.44 185.576 1615.49 184.899 1611.57 185.31C1611.19 185.165 1610.81 185.02 1610.43 184.85C1615.11 183.157 1620.83 184.125 1625.86 183.326C1627.76 183.326 1629.69 183.326 1631.59 183.35C1633.14 183.253 1634.88 183.592 1636.33 182.77C1635.06 182.165 1633.8 182.31 1632.63 182.286V182.213C1630.32 182.455 1628.14 181.898 1625.89 181.705C1625.83 181.632 1625.8 181.584 1625.74 181.511C1622.16 179.866 1622.67 177.616 1622.67 175.462C1618.75 174.785 1614.7 175.002 1610.71 174.93C1609.13 174.906 1606.63 175.099 1608.09 173.43C1612.14 173.43 1615.65 171.784 1619.88 172.317C1624.57 171.954 1629.34 171.833 1633.7 170.72C1634.94 171.034 1636.2 171.3 1637.6 171.083C1638.61 171.3 1639.62 171.494 1640.6 171.687C1641.64 172.413 1641.93 173.091 1640.44 173.744C1639.27 174.059 1637.82 174.446 1638.29 175.22C1638.54 175.607 1640.19 175.97 1641.14 175.946C1643.95 175.825 1646.54 176.406 1649.26 176.478C1649.87 176.72 1650.43 176.962 1651.04 177.204C1650.56 177.325 1650.05 177.446 1649.55 177.567C1648.88 177.592 1648.13 177.495 1647.49 177.567C1647.49 177.567 1647.43 177.567 1647.4 177.567C1647.4 177.567 1647.4 177.567 1647.4 177.591C1646.8 177.664 1646.29 177.882 1646.1 178.487H1648.73C1649.71 178.922 1650.91 179.092 1652.08 179.237C1652.02 179.745 1651.1 179.987 1650.15 180.229C1645.37 181.415 1645.41 181.439 1644.17 182.697C1648.03 181.39 1651.64 180.06 1655.46 182.479C1656.03 182.842 1657.93 182.624 1659.19 182.649C1660.87 182.939 1661.82 182.503 1662.42 181.705C1662.71 181.318 1662.67 181.052 1662.45 180.834C1663.88 180.834 1665.27 180.834 1666.69 180.761C1668.49 180.664 1670.17 180.301 1669.41 178.971C1666.09 178.317 1662.61 178.366 1659.16 178.438C1659.26 178.245 1659.48 178.051 1659.83 177.833C1660.62 177.374 1661.5 176.599 1660.52 176.261C1655.94 174.591 1660.36 172.873 1660.21 171.204C1661.63 171.179 1662.86 170.937 1663.62 170.308C1663.12 169.728 1662.33 169.607 1661.5 169.534C1658.91 169.244 1657.52 168.058 1656.06 167.114C1653.95 165.759 1656.57 164.501 1662.07 164.235C1663.72 163.945 1666.5 165.203 1666.94 163.219C1666.22 161.646 1668.87 159.88 1665.96 158.452C1663.65 158.815 1661.69 159.323 1661.95 160.751C1661.69 160.823 1661.44 160.92 1661.16 161.041C1658.44 162.59 1654.67 162.033 1651.42 162.348C1647.08 162.759 1642.91 163.582 1638.51 163.848C1635.44 164.041 1633.23 163.291 1632.82 161.67C1632.41 160.073 1633.17 158.67 1637.06 158.573C1638.54 158.549 1639.94 158.234 1641.26 157.895C1641.67 157.774 1642.15 157.702 1642.59 157.629C1643.1 157.557 1643.67 157.484 1644.2 157.387C1645.28 157.387 1646.32 157.387 1647.37 157.387C1649.42 157.726 1651.19 157.097 1653.09 156.879C1653.79 156.613 1654.77 156.395 1654.23 155.887C1654.67 155.839 1655.15 155.766 1655.59 155.718C1655.62 155.839 1655.65 155.96 1655.68 156.081C1655.59 156.395 1657.58 156.54 1655.97 156.976C1659.04 158.089 1662.86 156.952 1665.96 157.968C1666.6 157.605 1667.23 157.242 1667.86 156.879C1669.63 156.589 1668.46 155.234 1669.92 154.992C1674.98 154.169 1672.26 152.863 1670.42 151.556C1671.59 151.846 1672.54 152.016 1673.49 151.774C1673.24 152.112 1673.36 152.427 1673.9 152.742C1675.7 152.258 1674.09 149.935 1677.85 150.564C1683.17 151.435 1686.04 149.306 1689.52 147.902C1689.21 147.031 1690.38 145.991 1688.45 145.362C1688.01 145.216 1687.25 145.362 1686.65 145.362C1686.96 146.136 1687.28 146.886 1687.56 147.66C1687.56 147.733 1687.56 147.83 1687.56 147.902C1685.19 148.556 1682.63 148.822 1679.97 148.87C1677.85 147.684 1680.04 146.475 1679.91 145.265C1680.51 144.611 1681.11 143.958 1681.74 143.281C1679.25 143.16 1676.94 143.45 1674.75 142.99C1671.85 142.724 1669.92 141.03 1666.66 141.345C1666.75 141.248 1666.85 141.176 1666.94 141.079C1668.02 140.837 1670.23 141.78 1670.14 140.45C1670.07 139.53 1668.14 140.062 1667.07 139.966C1666.28 139.893 1665.46 139.966 1665.08 140.45C1663.02 140.159 1665.14 137.57 1661.12 138.393C1660.27 138.732 1659.23 138.877 1658.37 139.216C1658.18 139.264 1657.99 139.337 1657.8 139.409C1655.72 139.24 1653.98 138.804 1653.98 137.231C1654.36 137.038 1654.77 136.869 1655.15 136.675V136.288C1658.72 136.239 1662.29 136.215 1665.87 136.167C1666.91 136.215 1667.92 136.288 1668.97 136.336C1670.2 135.683 1673.17 136.869 1673.39 135.151C1673.96 135.465 1674.91 135.78 1675.2 135.223C1675.45 134.739 1675.99 134.037 1674.15 133.602C1671.84 133.045 1670.83 132.005 1673.2 130.844C1675.01 129.973 1673.39 129.561 1672.48 129.029C1672.67 128.811 1672.86 128.569 1673.08 128.351C1674.72 127.988 1676.34 127.625 1677.98 127.262C1678.9 127.262 1679.72 126.948 1679.81 126.561C1680 125.835 1678.83 125.883 1677.85 125.811C1674.79 125.617 1671.34 126.246 1668.84 124.698C1667.64 123.851 1665.99 124.069 1664.41 124.19C1663.12 124.286 1661.72 124.528 1660.59 124.238C1654.77 122.883 1648.7 122.157 1642.43 121.746C1640.47 121.625 1639.78 120.899 1639.78 119.931C1642.97 119.931 1646.17 119.882 1649.36 119.858C1649.36 120.003 1649.33 120.173 1649.3 120.342C1655.4 122.181 1662.71 121.383 1668.94 122.931C1671.65 122.23 1675.8 122.786 1676.59 120.391C1678.45 120.342 1680.79 120.584 1679.72 118.818C1678.83 118.915 1677.92 119.036 1677.03 119.132C1677.03 119.011 1677.03 118.89 1676.9 118.769C1674.41 118.164 1672.22 117.318 1670.45 116.398C1673.39 116.084 1674.06 118.648 1677.16 118.237C1680.16 117.826 1681.52 116.592 1681.17 114.898C1682.19 112.43 1680.98 110.204 1678.55 108.123C1678.23 107.954 1677.98 107.833 1677.73 107.687C1677.79 107.083 1677.32 106.55 1676.62 106.042C1676.49 106.042 1676.4 106.042 1676.27 106.066C1676.49 105.969 1676.78 105.873 1677.19 105.752C1677.51 103.622 1676.43 102.364 1671.75 102.896C1671.75 102.896 1671.88 102.775 1671.94 102.727V102.679C1672.41 102.582 1672.76 102.388 1672.79 102.05C1672.79 101.711 1672.48 101.517 1672 101.396C1672 101.348 1672 101.324 1671.97 101.275C1673.65 101.541 1675.13 102.05 1676.84 102.219C1676.97 102.219 1677.06 102.219 1677.19 102.219C1677.35 102.461 1677.54 102.679 1677.7 102.921C1676.84 103.985 1677.13 104.614 1679.62 104.397C1679.4 103.913 1678.99 103.405 1680.57 103.38C1682.28 103.38 1683.96 103.308 1685.66 103.284C1686.8 103.138 1687.59 102.824 1687.72 102.171C1688.95 101.856 1690.12 102.171 1691.33 102.243C1691.39 101.275 1691.39 100.307 1688.83 100.38C1687.4 99.5815 1685.7 98.904 1684.15 98.2265C1681.81 97.2102 1679.06 96.073 1676.24 95.5407C1676.68 94.9358 1677.09 94.2824 1678.04 93.9678C1675.92 93.5081 1674.34 93.0726 1672.51 93.121C1672.03 91.2095 1673.49 90.3869 1677.16 90.4594C1679.21 90.5078 1681.27 90.048 1683.36 90.0238C1685.7 89.9754 1686.8 89.4431 1687.44 88.2575C1688.07 87.0234 1687.69 85.983 1685.89 85.2329C1684.43 84.6522 1682.6 84.2409 1683.45 83.0311C1684.46 81.6277 1685.85 80.3694 1688.92 79.9823C1694.08 79.3048 1695.47 76.9576 1692.08 74.659C1691.2 73.2072 1690.28 71.7554 1689.4 70.3278C1690.35 70.231 1691.04 70.2309 1691.58 70.0615C1693.76 69.4082 1698 70.0132 1698.09 68.7065C1698.19 67.4967 1693.92 67.4968 1691.77 66.8193C1690.98 66.6257 1690.88 66.2627 1690.91 65.8514C1691.77 64.7625 1693.32 64.4721 1695.31 64.7867C1698.66 65.319 1698.44 64.2787 1698 63.093C1697.56 61.8348 1696.58 60.8426 1693.19 60.8426C1696.45 59.657 1698.57 58.3505 1699.26 56.7051C1700.47 53.9467 1703.88 52.9788 1708.31 53.6321C1716.37 54.8177 1723.43 51.8415 1731.21 52.398C1731.9 52.4464 1732.72 52.1078 1733.42 51.89C1734.11 51.6722 1734.84 51.406 1734.59 50.8736" fill="white"/>
</svg>
